# xmcd
#
# Track frame offsets:
#	150
#	9875
#	18932
#	28235
#	39022
#	52902
#	62960
#	75300
#	89057
#	106570
#
# Disc length: 1597 seconds
#
# Revision: 0
# Processed by: cddbd v1.5.1PL0 Copyright (c) Steve Scherf et al.
# Submitted via: audiograbber 1.83.01
#
DISCID=64063b0a
DTITLE=Faron Young - Greatest hits
DYEAR=1900
DGENRE=Country
TTITLE0=Alone with you
TTITLE1=Live fast, love hard, die young
TTITLE2=Hello walls
TTITLE3=Wine me up
TTITLE4=It's four in the morning
TTITLE5=If you ain't loving (you ain't living)
TTITLE6=Country girl
TTITLE7=I miss you already
TTITLE8=Sweet dreams
TTITLE9=This little girl of mine
EXTD=
EXTT0=
EXTT1=
EXTT2=
EXTT3=
EXTT4=
EXTT5=
EXTT6=
EXTT7=
EXTT8=
EXTT9=
PLAYORDER=
